<svg width="18" height="18" viewBox="0 0 18 18" fill="none" xmlns="http://www.w3.org/2000/svg">
<path d="M9.00001 5.4C8.0059 5.4 7.20001 4.59412 7.20001 3.6C7.20001 2.60589 8.0059 1.8 9.00001 1.8C9.99412 1.8 10.8 2.60589 10.8 3.6C10.8 4.59412 9.99412 5.4 9.00001 5.4Z" fill="#64748B"/>
<path d="M9.00001 10.8C8.0059 10.8 7.20001 9.99412 7.20001 9C7.20001 8.00589 8.0059 7.2 9.00001 7.2C9.99412 7.2 10.8 8.00589 10.8 9C10.8 9.99412 9.99412 10.8 9.00001 10.8Z" fill="#64748B"/>
<path d="M9.00001 16.2C8.0059 16.2 7.20001 15.3941 7.20001 14.4C7.20001 13.4059 8.0059 12.6 9.00001 12.6C9.99412 12.6 10.8 13.4059 10.8 14.4C10.8 15.3941 9.99412 16.2 9.00001 16.2Z" fill="#64748B"/>
</svg>
